<?xml version="1.0" encoding="utf-8"?>
<!-- Generator: Adobe Illustrator 20.0.0, SVG Export Plug-In . SVG Version: 6.00 Build 0)  -->
<svg version="1.1" id="レイヤー_1" xmlns="http://www.w3.org/2000/svg" xmlns:xlink="http://www.w3.org/1999/xlink" x="0px"
	 y="0px" viewBox="0 0 841.9 595.3" style="enable-background:new 0 0 841.9 595.3;" xml:space="preserve">
<style type="text/css">
	.st0{fill:#9FA0A0;}
	.st1{fill:none;stroke:#B9B9B9;stroke-width:1.6905;stroke-miterlimit:10;}
	.st2{fill:#B9B9B9;}
</style>
<g>
	<path class="st0" d="M377.5,301.2L369,288v13.2h-4.2v-21.5h3.7l8.5,13.2v-13.2h4.2v21.5H377.5z"/>
	<path class="st0" d="M400.8,299c-1.5,1.5-3.4,2.4-5.8,2.4c-2.4,0-4.3-0.8-5.8-2.4c-2.2-2.2-2.1-4.9-2.1-8.6s-0.1-6.4,2.1-8.6
		c1.5-1.5,3.4-2.4,5.8-2.4c2.4,0,4.3,0.8,5.8,2.4c2.2,2.2,2.1,4.9,2.1,8.6S403,296.8,400.8,299z M397.7,284.4
		c-0.6-0.7-1.5-1.1-2.7-1.1s-2.1,0.5-2.7,1.1c-0.8,0.9-1,1.9-1,6s0.2,5.1,1,6c0.6,0.7,1.6,1.1,2.7,1.1s2.1-0.5,2.7-1.1
		c0.8-0.9,1.1-1.9,1.1-6S398.5,285.3,397.7,284.4z"/>
	<path class="st0" d="M417.3,301.2v-21.5h4.2v21.5H417.3z"/>
	<path class="st0" d="M443.3,301.2v-12.5l-4.1,8.2h-2.8l-4.1-8.2v12.5H428v-21.5h4.1l5.6,11.6l5.6-11.6h4.1v21.5H443.3z"/>
	<path class="st0" d="M466.2,301.2l-1.3-3.8h-7.6l-1.3,3.8h-4.4l7.8-21.5h3.3l7.8,21.5H466.2z M461.2,286l-2.7,7.8h5.3L461.2,286z"
		/>
	<path class="st0" d="M488,298.9c-1.7,1.8-3.8,2.4-6.1,2.4c-2.4,0-4.3-0.8-5.8-2.4c-2.2-2.2-2.1-4.9-2.1-8.6s-0.1-6.4,2.1-8.6
		c1.5-1.5,3.4-2.4,5.8-2.4c5,0,7.5,3.3,8.1,6.9h-4.2c-0.5-2-1.7-3.1-3.9-3.1c-1.1,0-2.1,0.5-2.7,1.1c-0.8,0.9-1,1.9-1,6
		s0.2,5.2,1,6.1c0.6,0.7,1.5,1.1,2.7,1.1c1.3,0,2.3-0.5,3-1.2c0.7-0.8,1-1.8,1-2.9v-0.8h-4v-3.5h8.1v3.1
		C490.1,295.5,489.5,297.3,488,298.9z"/>
	<path class="st0" d="M495.8,301.2v-21.5H510v3.7h-10v5h8.5v3.7H500v5.2h10v3.7H495.8z"/>
</g>
<g>
	<path class="st1" d="M343.3,306.7h-44c-0.9,0-1.7-0.8-1.7-1.7v-33c0-0.9,0.8-1.7,1.7-1.7h44c0.9,0,1.7,0.8,1.7,1.7v33
		C345,305.9,344.2,306.7,343.3,306.7z"/>
	<circle class="st2" cx="308.7" cy="280.8" r="5.1"/>
	<polygon class="st2" points="303.3,296.5 303.3,301.3 338.8,301.3 338.8,290.9 328.7,279.6 316,292.9 310.6,288.9 	"/>
</g>
</svg>
